<svg width="400" height="295" viewBox="0 0 400 295" fill="none" xmlns="http://www.w3.org/2000/svg">
<g clip-path="url(#clip0_809_56)">
<path d="M371.6 294.074V260.681C371.6 260.681 384.614 284.356 371.6 294.074Z" fill="#F1F1F1"/>
<path d="M372.404 294.069L347.804 271.486C347.804 271.486 374.045 277.909 372.404 294.069Z" fill="#F1F1F1"/>
<path d="M266.134 205.867C266.079 205.255 266.159 204.639 266.368 204.062C266.577 203.485 266.91 202.961 267.344 202.526C267.777 202.092 268.301 201.758 268.877 201.547C269.454 201.337 270.07 201.256 270.681 201.309L275.116 192.801L280.944 194.235L274.512 206.162C274.354 207.184 273.827 208.111 273.031 208.77C272.235 209.429 271.224 209.772 270.192 209.736C269.159 209.699 268.175 209.285 267.427 208.572C266.68 207.859 266.219 206.896 266.134 205.867H266.134Z" fill="#FFB7B7"/>
<path d="M292.604 288.752L287.687 288.752L285.347 269.785L292.605 269.785L292.604 288.752Z" fill="#FFB7B7"/>
<path d="M293.858 293.519L278.002 293.518V293.318C278.002 291.681 278.653 290.111 279.81 288.954C280.967 287.797 282.537 287.146 284.174 287.146H284.174L293.858 287.147L293.858 293.519Z" fill="#001C36"/>
<path d="M332.154 285.079L327.41 286.372L320.162 268.689L327.164 266.78L332.154 285.079Z" fill="#FFB7B7"/>
<path d="M334.618 289.348L319.321 293.519L319.268 293.325C318.838 291.746 319.052 290.061 319.864 288.64C320.676 287.219 322.019 286.178 323.598 285.748L323.599 285.747L332.942 283.2L334.618 289.348Z" fill="#001C36"/>
<path d="M283.627 206.819L281.174 244.068L286.443 285.86L295.074 283.226L295.437 245.885L302.342 224.353L322.784 281.863L332.141 278.41L324.419 241.07L320.058 206.001L283.627 206.819Z" fill="#001C36"/>
<path d="M307.474 141.408L292.94 143.552L287.704 148.73L286.078 167.336L287.088 183.817L282.879 212.88C282.879 212.88 293.464 207.004 301.667 214.359C309.87 221.715 321.348 215.659 321.584 210.766L307.474 141.408Z" fill="#CBCBCB"/>
<path d="M300.094 164.744L300.094 164.723L307.314 141.188L307.407 141.182C307.921 141.148 320.026 140.435 322.734 146.412L322.747 146.441L321.925 170.898L323.057 209.203L300.669 214.052L300.506 214.087L300.094 164.744Z" fill="#001C36"/>
<path d="M292.092 163.117L293.417 143.165C283.997 143.751 284.139 150.43 284.15 150.721L284.047 180.565L282.16 212.492L289.02 211.977L292.092 163.117Z" fill="#001C36"/>
<path d="M270.851 199.42L279.214 180.01L285.052 169.291L288.099 188.628L277.518 204.499L270.851 199.42Z" fill="#001C36"/>
<path d="M305.414 192.278C305.542 191.678 305.801 191.113 306.171 190.623C306.54 190.134 307.013 189.731 307.556 189.444C308.098 189.157 308.697 188.992 309.31 188.961C309.923 188.93 310.535 189.034 311.104 189.266L317.851 182.445L322.996 185.534L313.333 195.033C312.881 195.962 312.103 196.693 311.148 197.087C310.193 197.482 309.126 197.512 308.15 197.173C307.174 196.833 306.356 196.147 305.852 195.245C305.348 194.343 305.192 193.288 305.414 192.278V192.278Z" fill="#FFB7B7"/>
<path d="M311.088 186.776L324.845 171.684L315.739 158.69L316.676 152.338L322.043 145.708L322.148 145.843C322.72 146.584 336.163 164.049 336.549 170.661C336.936 177.297 317.613 194.084 316.791 194.795L316.676 194.894L311.088 186.776Z" fill="#001C36"/>
<path d="M299.088 139.774C304.488 139.774 308.865 135.396 308.865 129.996C308.865 124.596 304.488 120.219 299.088 120.219C293.688 120.219 289.31 124.596 289.31 129.996C289.31 135.396 293.688 139.774 299.088 139.774Z" fill="#FFB7B7"/>
<path d="M308.284 122.179L308.758 121.225L306.373 120.04C306.373 120.04 303.741 115.759 298.98 116.962C294.219 118.165 292.077 118.885 292.077 118.885L289.698 120.083L290.892 121.271L288.75 121.991L290.181 122.702L288.516 123.659L289.412 128.565C289.412 128.565 290.901 124.844 293.763 126.266C296.625 127.688 301.86 125.531 301.86 125.531L306.409 134.333C306.409 134.333 307.347 131.247 309.02 132.07C309.02 132.07 313.294 125.264 308.284 122.179Z" fill="#001C36"/>
<path d="M197.649 177.536L48.9619 218.542L0 41.0059L148.687 0L197.649 177.536Z" fill="white"/>
<path d="M197.649 177.536L48.9619 218.542L0 41.0059L148.687 0L197.649 177.536ZM50.8616 215.195L194.303 175.636L146.788 3.34647L3.34649 42.9055L50.8616 215.195Z" fill="#F1F1F1"/>
<path d="M116.33 79.5332L79.0584 89.8121C78.5326 89.9564 77.971 89.8863 77.4969 89.6172C77.0227 89.348 76.6747 88.9017 76.5291 88.3763L66.2502 51.105C66.1059 50.5793 66.176 50.0177 66.4451 49.5435C66.7143 49.0694 67.1605 48.7213 67.686 48.5758L104.957 38.2969C105.483 38.1525 106.045 38.2226 106.519 38.4918C106.993 38.761 107.341 39.2072 107.487 39.7327L117.765 77.0039C117.91 77.5297 117.84 78.0913 117.57 78.5654C117.301 79.0396 116.855 79.3876 116.33 79.5332V79.5332ZM67.9047 49.3688C67.5894 49.4561 67.3216 49.665 67.1601 49.9495C66.9986 50.234 66.9566 50.5709 67.0432 50.8864L77.3221 88.1576C77.4094 88.4729 77.6182 88.7407 77.9027 88.9022C78.1872 89.0637 78.5242 89.1057 78.8397 89.0191L116.111 78.7402C116.426 78.6529 116.694 78.4441 116.855 78.1596C117.017 77.8751 117.059 77.5381 116.972 77.2226L106.693 39.9514C106.606 39.6361 106.397 39.3684 106.113 39.2069C105.828 39.0454 105.491 39.0033 105.176 39.0899L67.9047 49.3688Z" fill="#E5E5E5"/>
<path d="M106.882 87.0454L69.6103 97.3243C69.1371 97.4542 68.6317 97.3912 68.2049 97.1489C67.7782 96.9067 67.4649 96.505 67.334 96.0321L57.055 58.7609C56.9251 58.2877 56.9882 57.7822 57.2304 57.3555C57.4727 56.9287 57.8743 56.6155 58.3472 56.4845L95.6184 46.2056C96.0916 46.0757 96.5971 46.1388 97.0238 46.381C97.4506 46.6233 97.7638 47.0249 97.8948 47.4978L108.174 84.7691C108.304 85.2423 108.241 85.7477 107.998 86.1744C107.756 86.6012 107.354 86.9144 106.882 87.0454V87.0454Z" fill="#001C36"/>
<path d="M150.058 92.1335L46.049 120.818L47.1574 124.837L151.167 96.1528L150.058 92.1335Z" fill="#F1F1F1"/>
<path d="M152.949 102.613L48.9391 131.297L50.0476 135.317L154.057 106.632L152.949 102.613Z" fill="#F1F1F1"/>
<path d="M155.839 113.093L51.8291 141.777L52.9376 145.796L156.947 117.112L155.839 113.093Z" fill="#F1F1F1"/>
<path d="M160.925 131.537L56.9158 160.221L58.0242 164.24L162.034 135.556L160.925 131.537Z" fill="#F1F1F1"/>
<path d="M163.815 142.016L59.8059 170.701L60.9144 174.72L164.924 146.036L163.815 142.016Z" fill="#F1F1F1"/>
<path d="M166.705 152.496L62.6959 181.18L63.8044 185.199L167.814 156.515L166.705 152.496Z" fill="#F1F1F1"/>
<path d="M245.245 217.949H91.0068V33.785H245.245V217.949Z" fill="white"/>
<path d="M245.245 217.949H91.0068V33.785H245.245V217.949ZM93.7278 215.228H242.524V36.506H93.7278V215.228Z" fill="#E5E5E5"/>
<path d="M217.163 112.955H128.979V117.124H217.163V112.955Z" fill="#001C36"/>
<path d="M217.163 123.795H128.979V127.964H217.163V123.795Z" fill="#001C36"/>
<path d="M217.163 134.635H128.979V138.805H217.163V134.635Z" fill="#001C36"/>
<path d="M121.81 118.371C123.312 118.371 124.531 117.153 124.531 115.65C124.531 114.147 123.312 112.929 121.81 112.929C120.307 112.929 119.089 114.147 119.089 115.65C119.089 117.153 120.307 118.371 121.81 118.371Z" fill="#001C36"/>
<path d="M217.163 66.2441H128.979V70.4134H217.163V66.2441Z" fill="#E5E5E5"/>
<path d="M217.163 77.0844H128.979V81.2537H217.163V77.0844Z" fill="#E5E5E5"/>
<path d="M217.163 87.9247H128.979V92.094H217.163V87.9247Z" fill="#E5E5E5"/>
<path d="M121.81 71.2071C123.312 71.2071 124.531 69.9888 124.531 68.4861C124.531 66.9833 123.312 65.7651 121.81 65.7651C120.307 65.7651 119.089 66.9833 119.089 68.4861C119.089 69.9888 120.307 71.2071 121.81 71.2071Z" fill="#E5E5E5"/>
<path d="M217.163 160.119H128.979V164.288H217.163V160.119Z" fill="#E5E5E5"/>
<path d="M217.163 170.959H128.979V175.128H217.163V170.959Z" fill="#E5E5E5"/>
<path d="M217.163 181.799H128.979V185.969H217.163V181.799Z" fill="#E5E5E5"/>
<path d="M121.81 165.082C123.312 165.082 124.531 163.863 124.531 162.361C124.531 160.858 123.312 159.64 121.81 159.64C120.307 159.64 119.089 160.858 119.089 162.361C119.089 163.863 120.307 165.082 121.81 165.082Z" fill="#E5E5E5"/>
<path d="M238.044 233.807C255.455 233.807 269.569 219.693 269.569 202.282C269.569 184.871 255.455 170.757 238.044 170.757C220.633 170.757 206.519 184.871 206.519 202.282C206.519 219.693 220.633 233.807 238.044 233.807Z" fill="#001C36"/>
<path d="M246.778 200.271V194.239C246.779 193.091 246.554 191.955 246.115 190.894C245.677 189.834 245.033 188.87 244.222 188.059C243.411 187.247 242.448 186.603 241.388 186.164C240.328 185.724 239.192 185.498 238.044 185.498C236.896 185.498 235.76 185.724 234.7 186.164C233.64 186.603 232.677 187.247 231.866 188.059C231.054 188.87 230.411 189.834 229.973 190.894C229.534 191.955 229.309 193.091 229.31 194.239V200.271C228.142 200.323 227.04 200.824 226.232 201.669C225.424 202.513 224.973 203.637 224.973 204.805V219.06H251.115V204.805C251.115 203.637 250.664 202.513 249.856 201.669C249.048 200.824 247.946 200.323 246.778 200.271V200.271ZM238.044 188.58C239.544 188.581 240.983 189.178 242.043 190.239C243.104 191.3 243.701 192.738 243.703 194.239V200.26H232.385V194.239C232.387 192.738 232.984 191.3 234.044 190.239C235.105 189.178 236.544 188.581 238.044 188.58Z" fill="white"/>
<path d="M240.394 207.31C240.394 206.905 240.289 206.507 240.09 206.154C239.891 205.801 239.604 205.506 239.257 205.297C238.91 205.087 238.515 204.972 238.11 204.96C237.705 204.949 237.304 205.043 236.945 205.232C236.587 205.421 236.284 205.7 236.065 206.041C235.847 206.383 235.72 206.774 235.698 207.179C235.675 207.583 235.758 207.987 235.937 208.35C236.117 208.713 236.387 209.024 236.722 209.252V214.36H239.366V209.252C239.682 209.037 239.942 208.747 240.121 208.409C240.3 208.07 240.394 207.693 240.394 207.31V207.31Z" fill="#001C36"/>
<path d="M399.538 293.887H223.663C223.541 293.887 223.423 293.838 223.337 293.752C223.25 293.665 223.202 293.548 223.202 293.425C223.202 293.303 223.25 293.186 223.337 293.099C223.423 293.012 223.541 292.964 223.663 292.964H399.538C399.661 292.964 399.778 293.012 399.865 293.099C399.951 293.186 400 293.303 400 293.425C400 293.548 399.951 293.665 399.865 293.752C399.778 293.838 399.661 293.887 399.538 293.887Z" fill="#CBCBCB"/>
</g>
<defs>
<clipPath id="clip0_809_56">
<rect width="400" height="294.075" fill="white"/>
</clipPath>
</defs>
</svg>
