<svg width="14" height="14" viewBox="0 0 10 8" fill="none" xmlns="http://www.w3.org/2000/svg">
<path fill-rule="evenodd" clip-rule="evenodd" d="M9.79068 0.219599C9.92471 0.360251 10 0.55099 10 0.749872C10 0.948753 9.92471 1.13949 9.79068 1.28014L4.07129 7.2804C3.93722 7.42101 3.75541 7.5 3.56584 7.5C3.37626 7.5 3.19445 7.42101 3.06038 7.2804L0.200688 4.28027C0.0704584 4.13881 -0.00160187 3.94936 2.7026e-05 3.7527C0.00165592 3.55604 0.0768437 3.36793 0.209396 3.22886C0.341949 3.0898 0.521261 3.01092 0.708712 3.00921C0.896163 3.0075 1.07675 3.0831 1.21159 3.21973L3.56584 5.68958L8.77978 0.219599C8.91385 0.07899 9.09566 0 9.28523 0C9.4748 0 9.65661 0.07899 9.79068 0.219599Z" fill="white"/>
</svg>
