<svg width="26" height="26" viewBox="0 0 24 23" fill="none" xmlns="http://www.w3.org/2000/svg">
<g clip-path="url(#clip0_607_93)">
<path d="M12.3223 23C18.6735 23 23.8223 17.8513 23.8223 11.5C23.8223 5.14873 18.6735 0 12.3223 0C5.97099 0 0.822266 5.14873 0.822266 11.5C0.822266 17.8513 5.97099 23 12.3223 23Z" fill="#001C36"/>
<path d="M12.3225 20.7639C17.4388 20.7639 21.5864 16.6163 21.5864 11.5C21.5864 6.3837 17.4388 2.23611 12.3225 2.23611C7.20618 2.23611 3.05859 6.3837 3.05859 11.5C3.05859 16.6163 7.20618 20.7639 12.3225 20.7639Z" fill="#F4B30C"/>
<path d="M12.3222 19.8056C16.9092 19.8056 20.6277 16.087 20.6277 11.5C20.6277 6.91297 16.9092 3.19444 12.3222 3.19444C7.73513 3.19444 4.0166 6.91297 4.0166 11.5C4.0166 16.087 7.73513 19.8056 12.3222 19.8056Z" fill="#001C36"/>
<path d="M12.3225 5.11111L13.3006 9.13867L16.8401 6.98242L14.6838 10.5219L18.7114 11.5L14.6838 12.4781L16.8401 16.0176L13.3006 13.8613L12.3225 17.8889L11.3443 13.8613L7.8049 16.0176L9.96115 12.4781L5.93359 11.5L9.96115 10.5219L7.8049 6.98242L11.3443 9.13867L12.3225 5.11111Z" fill="#CCD6DD"/>
<path d="M11.9023 13.2556L17.5099 16.6935L14.0733 11.0853L11.9023 13.2556Z" fill="white"/>
<path d="M12.742 9.75392L7.13379 6.31606L10.571 11.9249L12.742 9.75392Z" fill="#DD2E44"/>
<path d="M12.3224 13.4569C13.4004 13.4569 14.2742 12.5831 14.2742 11.5051C14.2742 10.4272 13.4004 9.5533 12.3224 9.5533C11.2445 9.5533 10.3706 10.4272 10.3706 11.5051C10.3706 12.5831 11.2445 13.4569 12.3224 13.4569Z" fill="#8899A6"/>
<path d="M12.3224 12.558C12.9039 12.558 13.3753 12.0866 13.3753 11.5051C13.3753 10.9236 12.9039 10.4522 12.3224 10.4522C11.7409 10.4522 11.2695 10.9236 11.2695 11.5051C11.2695 12.0866 11.7409 12.558 12.3224 12.558Z" fill="#F5F8FA"/>
</g>
<defs>
<clipPath id="clip0_607_93">
<rect width="23" height="23" fill="white" transform="translate(0.822266)"/>
</clipPath>
</defs>
</svg>
