<svg width="70" height="70" viewBox="0 0 70 70" fill="none" xmlns="http://www.w3.org/2000/svg">
<path d="M28.5 3.75278C32.5222 1.43055 37.4778 1.43055 41.5 3.75278L58.8109 13.7472C62.8331 16.0694 65.3109 20.3611 65.3109 25.0056V44.9944C65.3109 49.6389 62.8331 53.9306 58.8109 56.2528L41.5 66.2472C37.4778 68.5694 32.5222 68.5694 28.5 66.2472L11.1891 56.2528C7.1669 53.9306 4.68911 49.6389 4.68911 44.9944V25.0056C4.68911 20.3611 7.1669 16.0694 11.1891 13.7472L28.5 3.75278Z" fill="#001C36"/>
<path d="M40.5785 30.054C40.2799 29.9544 40.0456 29.7201 39.9461 29.4215L35.4743 16.0064C35.3224 15.5505 34.6776 15.5505 34.5257 16.0064L30.0539 29.4215C29.9544 29.7201 29.7201 29.9544 29.4215 30.054L16.0064 34.5257C15.5505 34.6776 15.5505 35.3224 16.0064 35.4743L29.4215 39.9461C29.7201 40.0456 29.9544 40.2799 30.0539 40.5785L34.5257 53.9936C34.6776 54.4495 35.3224 54.4495 35.4743 53.9936L39.9461 40.5785C40.0456 40.2799 40.2799 40.0456 40.5785 39.9461L53.9936 35.4743C54.4495 35.3224 54.4495 34.6776 53.9936 34.5257L40.5785 30.054ZM22.9295 35C22.6459 35 22.5814 34.6025 22.8504 34.5128L30.7744 31.8715C31.2465 31.7141 31.7625 31.9278 31.9851 32.373L32.9368 34.2764C33.103 34.6088 32.8613 35 32.4896 35H22.9295ZM35 47.0705C35 47.3541 34.6025 47.4187 34.5128 47.1496L31.8715 39.2256C31.7141 38.7535 31.9278 38.2375 32.373 38.0149L34.2764 37.0632C34.6088 36.897 35 37.1387 35 37.5104V47.0705ZM35 22.9295C35 22.6459 35.3975 22.5814 35.4872 22.8504L38.1285 30.7744C38.2859 31.2466 38.0722 31.7625 37.627 31.9851L35.7236 32.9368C35.3912 33.103 35 32.8613 35 32.4896V22.9295ZM39.2256 38.1285C38.7535 38.2859 38.2375 38.0722 38.0149 37.6271L37.0632 35.7236C36.897 35.3912 37.1387 35 37.5104 35H47.0705C47.3541 35 47.4186 35.3975 47.1496 35.4872L39.2256 38.1285ZM29.1682 43.2029C29.2937 43.6735 29.062 44.166 28.6195 44.3693L23.7036 46.6279C23.4928 46.7248 23.2752 46.5072 23.3721 46.2964L25.6154 41.414C25.8254 40.9569 26.3422 40.7269 26.8223 40.877L28.1789 41.3009C28.5063 41.4032 28.7585 41.6663 28.8468 41.9977L29.1682 43.2029ZM43.2029 40.8318C43.6735 40.7063 44.166 40.938 44.3693 41.3805L46.6279 46.2964C46.7248 46.5072 46.5072 46.7248 46.2964 46.6279L41.414 44.3846C40.9569 44.1746 40.7269 43.6578 40.877 43.1777L41.3009 41.8211C41.4032 41.4937 41.6663 41.2415 41.9977 41.1532L43.2029 40.8318ZM26.8332 29.1019C26.3492 29.2632 25.8213 29.0343 25.6083 28.5707L23.3721 23.7036C23.2752 23.4928 23.4928 23.2752 23.7036 23.3721L28.5707 25.6083C29.0343 25.8213 29.2632 26.3492 29.1019 26.8332L28.6928 28.0604C28.5933 28.359 28.359 28.5933 28.0604 28.6928L26.8332 29.1019ZM40.8318 26.7971C40.7063 26.3265 40.938 25.834 41.3805 25.6307L46.2964 23.3721C46.5072 23.2752 46.7248 23.4928 46.6279 23.7036L44.3846 28.586C44.1746 29.0431 43.6578 29.2731 43.1777 29.123L41.8211 28.6991C41.4937 28.5968 41.2415 28.3337 41.1531 28.0023L40.8318 26.7971Z" fill="white"/>
</svg>
