<svg width="18" height="18" viewBox="0 0 14 14" fill="none" xmlns="http://www.w3.org/2000/svg">
<path fill-rule="evenodd" clip-rule="evenodd" d="M2.7125 9.79966C2.75325 9.74533 2.80609 9.70123 2.86684 9.67085C2.92759 9.64048 2.99458 9.62466 3.0625 9.62466H5.25C5.36603 9.62466 5.47731 9.67076 5.55936 9.7528C5.64141 9.83485 5.6875 9.94613 5.6875 10.0622C5.6875 10.1782 5.64141 10.2895 5.55936 10.3715C5.47731 10.4536 5.36603 10.4997 5.25 10.4997H3.28125L1.3125 13.1247H12.6875L10.7188 10.4997H8.75C8.63397 10.4997 8.52269 10.4536 8.44064 10.3715C8.35859 10.2895 8.3125 10.1782 8.3125 10.0622C8.3125 9.94613 8.35859 9.83485 8.44064 9.7528C8.52269 9.67076 8.63397 9.62466 8.75 9.62466H10.9375C11.0054 9.62466 11.0724 9.64048 11.1332 9.67085C11.1939 9.70123 11.2467 9.74533 11.2875 9.79966L13.9125 13.2997C13.9612 13.3647 13.9909 13.442 13.9982 13.5229C14.0055 13.6038 13.9901 13.6851 13.9538 13.7578C13.9175 13.8305 13.8616 13.8916 13.7925 13.9343C13.7234 13.977 13.6437 13.9997 13.5625 13.9997H0.4375C0.356251 13.9997 0.276607 13.977 0.207493 13.9343C0.138378 13.8916 0.082524 13.8305 0.0461883 13.7578C0.00985267 13.6851 -0.00552861 13.6038 0.00176801 13.5229C0.00906462 13.442 0.0387508 13.3647 0.0875002 13.2997L2.7125 9.79966Z" fill="#7D8EA4"/>
<path fill-rule="evenodd" clip-rule="evenodd" d="M3.5 3.49968C3.50006 2.82612 3.69448 2.1669 4.05991 1.60109C4.42534 1.03529 4.94627 0.586951 5.56019 0.309869C6.17411 0.032787 6.85494 -0.0612661 7.52099 0.0389953C8.18704 0.139257 8.81001 0.429573 9.31516 0.87511C9.8203 1.32065 10.1862 1.90248 10.3688 2.55079C10.5515 3.19909 10.5432 3.88634 10.345 4.53006C10.1468 5.17379 9.767 5.74664 9.25128 6.17988C8.73555 6.61313 8.10577 6.88836 7.4375 6.97255V11.8122C7.4375 11.9282 7.39141 12.0395 7.30936 12.1215C7.22731 12.2036 7.11603 12.2497 7 12.2497C6.88397 12.2497 6.77269 12.2036 6.69064 12.1215C6.60859 12.0395 6.5625 11.9282 6.5625 11.8122V6.97343C5.71634 6.86682 4.93823 6.45493 4.37431 5.81513C3.8104 5.17533 3.49949 4.35165 3.5 3.4988V3.49968Z" fill="#7D8EA4"/>
</svg>
