<svg width="22" height="21" viewBox="0 0 16 15" fill="none" xmlns="http://www.w3.org/2000/svg">
<path d="M14.4 0H1.6C0.72 0 0 0.72 0 1.6V14.072C0 14.784 0.864 15.144 1.368 14.64L3.2 12.8H14.4C15.28 12.8 16 12.08 16 11.2V1.6C16 0.72 15.28 0 14.4 0ZM9.256 7.656L8.36 9.608C8.32818 9.67784 8.27695 9.73704 8.21241 9.77856C8.14786 9.82008 8.07274 9.84216 7.996 9.84216C7.91926 9.84216 7.84414 9.82008 7.77959 9.77856C7.71505 9.73704 7.66382 9.67784 7.632 9.608L6.736 7.656L4.784 6.76C4.71416 6.72818 4.65496 6.67695 4.61344 6.61241C4.57192 6.54786 4.54984 6.47274 4.54984 6.396C4.54984 6.31926 4.57192 6.24414 4.61344 6.17959C4.65496 6.11505 4.71416 6.06382 4.784 6.032L6.736 5.136L7.632 3.184C7.66382 3.11416 7.71505 3.05496 7.77959 3.01344C7.84414 2.97192 7.91926 2.94984 7.996 2.94984C8.07274 2.94984 8.14786 2.97192 8.21241 3.01344C8.27695 3.05496 8.32818 3.11416 8.36 3.184L9.256 5.136L11.208 6.032C11.2778 6.06382 11.337 6.11505 11.3786 6.17959C11.4201 6.24414 11.4422 6.31926 11.4422 6.396C11.4422 6.47274 11.4201 6.54786 11.3786 6.61241C11.337 6.67695 11.2778 6.72818 11.208 6.76L9.256 7.656V7.656Z" fill="white"/>
</svg>
