<svg width="482" height="322" viewBox="0 0 482 322" fill="none" xmlns="http://www.w3.org/2000/svg">
<g filter="url(#filter0_d_71_2)">
<rect x="10" y="10" width="395" height="238" rx="7" fill="white"/>
</g>
<rect x="72" y="25" width="317" height="17" rx="8.5" fill="#32D3CA"/>
<rect x="28" y="65" width="361" height="27" rx="5" fill="#00AFA5" fill-opacity="0.25"/>
<circle cx="30" cy="33" r="3" fill="#FF4848"/>
<circle cx="41" cy="33" r="3" fill="#FFC24A"/>
<circle cx="52" cy="33" r="3" fill="#29CD74"/>
<rect x="28" y="106" width="98" height="123" rx="5" fill="#1190C7" fill-opacity="0.25"/>
<rect x="37" y="119" width="7" height="6" rx="1" fill="#1190C7"/>
<rect x="32" y="69" width="20" height="19" rx="3" fill="#00AFA5"/>
<rect x="57" y="73" width="82" height="4" rx="2" fill="#00AFA5"/>
<rect x="57" y="80" width="15" height="4" rx="2" fill="#00AFA5"/>
<rect x="49" y="119" width="29" height="6" rx="1" fill="#1190C7" fill-opacity="0.25"/>
<rect x="80" y="119" width="36" height="6" rx="1" fill="#1190C7" fill-opacity="0.25"/>
<rect x="49" y="133" width="22" height="6" rx="1" fill="#1190C7" fill-opacity="0.25"/>
<rect x="49" y="147" width="20" height="6" rx="1" fill="#1190C7" fill-opacity="0.25"/>
<rect x="71" y="147" width="32" height="6" rx="1" fill="#1190C7" fill-opacity="0.25"/>
<rect x="37" y="133" width="7" height="6" rx="1" fill="#1190C7" fill-opacity="0.25"/>
<rect x="37" y="147" width="7" height="6" rx="1" fill="#1190C7"/>
<rect x="143" y="106" width="216" height="58" rx="5" fill="#001C36"/>
<rect x="178" y="118" width="126" height="4" rx="2" fill="white" fill-opacity="0.75"/>
<rect x="178" y="126" width="57" height="4" rx="2" fill="white" fill-opacity="0.75"/>
<rect x="239" y="126" width="16" height="4" rx="2" fill="white" fill-opacity="0.75"/>
<rect x="154" y="116" width="17" height="17" rx="8.5" fill="white"/>
<rect x="36" y="205" width="82" height="17" rx="3" fill="#001C36"/>
<rect x="55" y="211" width="44" height="4" rx="1" fill="white"/>
<g filter="url(#filter1_d_71_2)">
<rect x="184" y="187" width="273" height="110" rx="10" fill="white"/>
</g>
<path d="M205.37 213.889H207.39C207.373 212.257 206.073 211.153 204.045 211.153C202.05 211.153 200.614 212.24 200.627 213.864C200.623 215.189 201.552 215.935 203.06 216.28L203.972 216.493C204.931 216.714 205.362 216.974 205.37 217.464C205.362 217.997 204.863 218.368 204.015 218.368C203.082 218.368 202.468 217.933 202.421 217.094H200.401C200.427 219.135 201.846 220.111 204.04 220.111C206.214 220.111 207.501 219.126 207.509 217.469C207.501 216.075 206.559 215.223 204.837 214.844L204.087 214.673C203.295 214.503 202.792 214.239 202.809 213.719C202.813 213.241 203.222 212.896 204.04 212.896C204.863 212.896 205.315 213.267 205.37 213.889ZM212.269 213.455H211.089V211.886H209.005V213.455H208.14V214.989H209.005V218.172C208.992 219.497 209.853 220.162 211.323 220.094C211.826 220.068 212.188 219.966 212.388 219.906L212.073 218.402C211.984 218.423 211.775 218.466 211.617 218.466C211.281 218.466 211.089 218.33 211.089 217.942V214.989H212.269V213.455ZM216.317 220.124C218.376 220.124 219.624 218.764 219.624 216.749C219.624 214.729 218.376 213.369 216.317 213.369C214.259 213.369 213.011 214.729 213.011 216.749C213.011 218.764 214.259 220.124 216.317 220.124ZM216.33 218.551C215.559 218.551 215.133 217.818 215.133 216.736C215.133 215.649 215.559 214.912 216.33 214.912C217.076 214.912 217.502 215.649 217.502 216.736C217.502 217.818 217.076 218.551 216.33 218.551ZM223.747 220.124C225.588 220.124 226.73 219.054 226.786 217.435H224.838C224.761 218.129 224.344 218.509 223.773 218.509C223.04 218.509 222.562 217.891 222.562 216.727C222.562 215.572 223.044 214.955 223.773 214.955C224.369 214.955 224.757 215.359 224.838 216.028H226.786C226.739 214.418 225.562 213.369 223.743 213.369C221.685 213.369 220.44 214.741 220.44 216.749C220.44 218.747 221.676 220.124 223.747 220.124ZM227.852 220H229.936V218.036L230.358 217.524L231.917 220H234.325L231.909 216.305L234.231 213.455H231.87L230.029 215.798H229.936V211.273H227.852V220ZM239.443 220L240.018 218.168H243.031L243.606 220H245.873L242.929 211.273H240.12L237.176 220H239.443ZM240.521 216.565L241.488 213.472H241.556L242.528 216.565H240.521ZM252.342 213.455H250.147L248.937 217.963H248.869L247.663 213.455H245.468L247.71 220H250.096L252.342 213.455ZM254.81 220.111C255.722 220.111 256.353 219.757 256.711 219.088H256.762V220H258.722V215.551C258.722 214.166 257.491 213.369 255.825 213.369C254.065 213.369 253.067 214.256 252.901 215.449L254.823 215.517C254.913 215.099 255.258 214.844 255.808 214.844C256.319 214.844 256.643 215.091 256.643 215.53V215.551C256.643 215.952 256.208 216.037 255.092 216.135C253.766 216.246 252.658 216.736 252.658 218.185C252.658 219.48 253.558 220.111 254.81 220.111ZM255.454 218.747C254.972 218.747 254.631 218.517 254.631 218.082C254.631 217.661 254.964 217.405 255.556 217.315C255.944 217.26 256.421 217.175 256.656 217.051V217.673C256.656 218.312 256.119 218.747 255.454 218.747ZM259.996 220H262.08V213.455H259.996V220ZM261.04 212.692C261.633 212.692 262.11 212.244 262.11 211.695C262.11 211.145 261.633 210.702 261.04 210.702C260.452 210.702 259.971 211.145 259.971 211.695C259.971 212.244 260.452 212.692 261.04 212.692ZM265.49 211.273H263.407V220H265.49V211.273ZM268.662 220.111C269.574 220.111 270.205 219.757 270.562 219.088H270.614V220H272.574V215.551C272.574 214.166 271.342 213.369 269.676 213.369C267.916 213.369 266.919 214.256 266.753 215.449L268.675 215.517C268.764 215.099 269.109 214.844 269.659 214.844C270.17 214.844 270.494 215.091 270.494 215.53V215.551C270.494 215.952 270.06 216.037 268.943 216.135C267.618 216.246 266.51 216.736 266.51 218.185C266.51 219.48 267.409 220.111 268.662 220.111ZM269.305 218.747C268.824 218.747 268.483 218.517 268.483 218.082C268.483 217.661 268.815 217.405 269.408 217.315C269.795 217.26 270.273 217.175 270.507 217.051V217.673C270.507 218.312 269.97 218.747 269.305 218.747ZM273.848 220H275.911V218.939H275.974C276.239 219.544 276.827 220.094 277.815 220.094C279.264 220.094 280.432 218.96 280.432 216.732C280.432 214.422 279.196 213.369 277.828 213.369C276.793 213.369 276.226 213.974 275.974 214.575H275.932V211.273H273.848V220ZM275.889 216.727C275.889 215.658 276.332 214.997 277.095 214.997C277.866 214.997 278.293 215.675 278.293 216.727C278.293 217.784 277.866 218.47 277.095 218.47C276.332 218.47 275.889 217.788 275.889 216.727ZM281.524 220H283.608V213.455H281.524V220ZM282.568 212.692C283.16 212.692 283.637 212.244 283.637 211.695C283.637 211.145 283.16 210.702 282.568 210.702C281.98 210.702 281.498 211.145 281.498 211.695C281.498 212.244 281.98 212.692 282.568 212.692ZM287.018 211.273H284.934V220H287.018V211.273ZM288.344 220H290.428V213.455H288.344V220ZM289.388 212.692C289.98 212.692 290.458 212.244 290.458 211.695C290.458 211.145 289.98 210.702 289.388 210.702C288.8 210.702 288.319 211.145 288.319 211.695C288.319 212.244 288.8 212.692 289.388 212.692ZM295.449 213.455H294.268V211.886H292.185V213.455H291.32V214.989H292.185V218.172C292.172 219.497 293.033 220.162 294.503 220.094C295.006 220.068 295.368 219.966 295.568 219.906L295.253 218.402C295.163 218.423 294.955 218.466 294.797 218.466C294.46 218.466 294.268 218.33 294.268 217.942V214.989H295.449V213.455ZM297.786 222.455C299.286 222.455 300.032 221.696 300.394 220.626L302.862 213.459L300.667 213.455L299.444 218.125H299.376L298.17 213.455H295.988L298.315 220.239L298.234 220.435C298.033 220.925 297.582 220.933 296.968 220.733L296.508 222.246C296.823 222.374 297.288 222.455 297.786 222.455Z" fill="#001C36"/>
<path d="M258 256C258 253.239 260.239 251 263 251H312C314.761 251 317 253.239 317 256V272C317 274.761 314.761 277 312 277H263C260.239 277 258 274.761 258 272V256Z" fill="#FD574D"/>
<rect x="199" y="251" width="53" height="26" rx="5" fill="#FD574D" fill-opacity="0.15"/>
<path d="M272.802 268H277.873V266.572H274.56V265.077H277.614V263.646H274.56V262.155H277.873V260.727H272.802V268ZM278.974 268H280.711V264.772C280.711 264.232 281.027 263.888 281.481 263.888C281.932 263.888 282.231 264.204 282.231 264.708V268H283.9V264.744C283.9 264.222 284.187 263.888 284.667 263.888C285.107 263.888 285.42 264.183 285.42 264.726V268H287.156V264.328C287.156 263.174 286.446 262.474 285.416 262.474C284.61 262.474 283.974 262.897 283.772 263.547H283.715C283.569 262.893 282.983 262.474 282.227 262.474C281.481 262.474 280.913 262.883 280.686 263.547H280.626V262.545H278.974V268ZM288.232 270.045H289.969V267.116H290.004C290.224 267.62 290.714 268.078 291.538 268.078C292.746 268.078 293.719 267.134 293.719 265.276C293.719 263.352 292.689 262.474 291.549 262.474C290.686 262.474 290.214 262.979 290.004 263.479H289.951V262.545H288.232V270.045ZM289.933 265.273C289.933 264.381 290.302 263.831 290.938 263.831C291.581 263.831 291.936 264.396 291.936 265.273C291.936 266.153 291.581 266.725 290.938 266.725C290.302 266.725 289.933 266.157 289.933 265.273ZM297.707 262.545H296.724V261.239H294.987V262.545H294.266V263.824H294.987V266.477C294.977 267.581 295.694 268.135 296.919 268.078C297.338 268.057 297.64 267.972 297.807 267.922L297.544 266.668C297.469 266.686 297.295 266.722 297.164 266.722C296.884 266.722 296.724 266.608 296.724 266.285V263.824H297.707V262.545ZM299.655 270.045C300.905 270.045 301.527 269.413 301.828 268.522L303.885 262.549L302.056 262.545L301.037 266.438H300.98L299.975 262.545H298.157L300.096 268.199L300.028 268.362C299.861 268.771 299.485 268.778 298.973 268.611L298.59 269.871C298.853 269.978 299.24 270.045 299.655 270.045Z" fill="white"/>
<path d="M205.089 230C204.874 228.807 203.919 228.102 202.749 228.102C201.26 228.102 200.18 229.25 200.18 231.091C200.18 232.932 201.26 234.08 202.749 234.08C203.919 234.08 204.874 233.375 205.089 232.182H204.385C204.214 232.989 203.521 233.42 202.749 233.42C201.692 233.42 200.862 232.602 200.862 231.091C200.862 229.58 201.692 228.761 202.749 228.761C203.521 228.761 204.214 229.193 204.385 230H205.089ZM207.91 234.091C209.092 234.091 209.887 233.193 209.887 231.841C209.887 230.477 209.092 229.58 207.91 229.58C206.728 229.58 205.933 230.477 205.933 231.841C205.933 233.193 206.728 234.091 207.91 234.091ZM207.91 233.489C207.012 233.489 206.603 232.716 206.603 231.841C206.603 230.966 207.012 230.182 207.91 230.182C208.808 230.182 209.217 230.966 209.217 231.841C209.217 232.716 208.808 233.489 207.91 233.489ZM214.001 230.614C213.791 229.994 213.32 229.58 212.456 229.58C211.536 229.58 210.854 230.102 210.854 230.841C210.854 231.443 211.212 231.847 212.013 232.034L212.74 232.205C213.18 232.307 213.388 232.517 213.388 232.818C213.388 233.193 212.99 233.5 212.365 233.5C211.817 233.5 211.473 233.264 211.354 232.795L210.717 232.955C210.874 233.696 211.484 234.091 212.376 234.091C213.391 234.091 214.081 233.537 214.081 232.784C214.081 232.176 213.7 231.793 212.922 231.602L212.274 231.443C211.757 231.315 211.524 231.142 211.524 230.807C211.524 230.432 211.922 230.159 212.456 230.159C213.041 230.159 213.283 230.483 213.399 230.784L214.001 230.614ZM216.988 229.636H216.056V228.591H215.386V229.636H214.727V230.205H215.386V232.932C215.386 233.693 215.999 234.057 216.567 234.057C216.817 234.057 216.977 234.011 217.067 233.977L216.931 233.375C216.874 233.386 216.783 233.409 216.636 233.409C216.34 233.409 216.056 233.318 216.056 232.75V230.205H216.988V229.636ZM219.722 234.091C220.688 234.091 221.325 233.5 221.438 232.727H220.768C220.643 233.205 220.245 233.489 219.722 233.489C218.927 233.489 218.415 232.83 218.415 231.818C218.415 230.83 218.938 230.182 219.722 230.182C220.313 230.182 220.665 230.545 220.768 230.943H221.438C221.325 230.125 220.631 229.58 219.711 229.58C218.529 229.58 217.745 230.511 217.745 231.841C217.745 233.148 218.495 234.091 219.722 234.091ZM224.191 234.091C225.373 234.091 226.168 233.193 226.168 231.841C226.168 230.477 225.373 229.58 224.191 229.58C223.009 229.58 222.214 230.477 222.214 231.841C222.214 233.193 223.009 234.091 224.191 234.091ZM224.191 233.489C223.293 233.489 222.884 232.716 222.884 231.841C222.884 230.966 223.293 230.182 224.191 230.182C225.089 230.182 225.498 230.966 225.498 231.841C225.498 232.716 225.089 233.489 224.191 233.489ZM230.589 234H231.317L232.601 229.364H232.646L233.93 234H234.658L236.249 228.182H235.533L234.317 232.92H234.26L233.021 228.182H232.226L230.987 232.92H230.93L229.714 228.182H228.999L230.589 234ZM237.706 231.375C237.706 230.614 238.192 230.182 238.854 230.182C239.484 230.182 239.865 230.58 239.865 231.273V234H240.536V231.227C240.536 230.105 239.939 229.58 239.047 229.58C238.359 229.58 237.967 229.866 237.763 230.318H237.706V228.182H237.036V234H237.706V231.375ZM243.535 234.091C244.717 234.091 245.512 233.193 245.512 231.841C245.512 230.477 244.717 229.58 243.535 229.58C242.353 229.58 241.558 230.477 241.558 231.841C241.558 233.193 242.353 234.091 243.535 234.091ZM243.535 233.489C242.637 233.489 242.228 232.716 242.228 231.841C242.228 230.966 242.637 230.182 243.535 230.182C244.433 230.182 244.842 230.966 244.842 231.841C244.842 232.716 244.433 233.489 243.535 233.489ZM247.206 228.182H246.536V234H247.206V228.182ZM250.263 234.091C251.15 234.091 251.798 233.648 252.002 232.989L251.354 232.807C251.184 233.261 250.789 233.489 250.263 233.489C249.477 233.489 248.934 232.98 248.903 232.045H252.07V231.761C252.07 230.136 251.104 229.58 250.195 229.58C249.013 229.58 248.229 230.511 248.229 231.852C248.229 233.193 249.002 234.091 250.263 234.091ZM248.903 231.466C248.948 230.787 249.428 230.182 250.195 230.182C250.923 230.182 251.388 230.727 251.388 231.466H248.903ZM256.181 230.614C255.971 229.994 255.499 229.58 254.636 229.58C253.715 229.58 253.033 230.102 253.033 230.841C253.033 231.443 253.391 231.847 254.192 232.034L254.92 232.205C255.36 232.307 255.567 232.517 255.567 232.818C255.567 233.193 255.17 233.5 254.545 233.5C253.996 233.5 253.653 233.264 253.533 232.795L252.897 232.955C253.053 233.696 253.664 234.091 254.556 234.091C255.57 234.091 256.261 233.537 256.261 232.784C256.261 232.176 255.88 231.793 255.102 231.602L254.454 231.443C253.937 231.315 253.704 231.142 253.704 230.807C253.704 230.432 254.102 230.159 254.636 230.159C255.221 230.159 255.462 230.483 255.579 230.784L256.181 230.614ZM258.554 234.102C259.315 234.102 259.713 233.693 259.849 233.409H259.884V234H260.554V231.125C260.554 229.739 259.497 229.58 258.94 229.58C258.281 229.58 257.531 229.807 257.19 230.602L257.827 230.83C257.974 230.511 258.324 230.17 258.963 230.17C259.58 230.17 259.884 230.497 259.884 231.057V231.08C259.884 231.403 259.554 231.375 258.759 231.477C257.949 231.582 257.065 231.761 257.065 232.761C257.065 233.614 257.724 234.102 258.554 234.102ZM258.656 233.5C258.122 233.5 257.736 233.261 257.736 232.795C257.736 232.284 258.202 232.125 258.724 232.057C259.009 232.023 259.77 231.943 259.884 231.807V232.42C259.884 232.966 259.452 233.5 258.656 233.5ZM262.448 228.182H261.778V234H262.448V228.182ZM265.506 234.091C266.392 234.091 267.04 233.648 267.244 232.989L266.597 232.807C266.426 233.261 266.031 233.489 265.506 233.489C264.719 233.489 264.176 232.98 264.145 232.045H267.312V231.761C267.312 230.136 266.347 229.58 265.438 229.58C264.256 229.58 263.472 230.511 263.472 231.852C263.472 233.193 264.244 234.091 265.506 234.091ZM264.145 231.466C264.19 230.787 264.67 230.182 265.438 230.182C266.165 230.182 266.631 230.727 266.631 231.466H264.145ZM269.332 233.205H268.605L268.571 233.523C268.489 234.293 268.327 235.06 268.253 235.42H268.764C268.901 235.034 269.19 234.159 269.287 233.511L269.332 233.205ZM274.631 234.08C275.739 234.08 276.552 233.261 276.552 232.148C276.552 231.02 275.768 230.193 274.7 230.193C274.308 230.193 273.927 230.332 273.688 230.523H273.654L273.859 228.807H276.29V228.182H273.268L272.915 231.045L273.575 231.125C273.816 230.952 274.228 230.827 274.586 230.83C275.327 230.835 275.87 231.398 275.87 232.159C275.87 232.906 275.347 233.455 274.631 233.455C274.035 233.455 273.56 233.071 273.506 232.545H272.825C272.867 233.432 273.631 234.08 274.631 234.08ZM279.544 234.08C280.706 234.08 281.516 233.401 281.521 232.455C281.516 231.719 281.024 231.094 280.396 230.977V230.943C280.942 230.801 281.3 230.267 281.305 229.648C281.3 228.761 280.555 228.102 279.544 228.102C278.521 228.102 277.777 228.761 277.783 229.648C277.777 230.267 278.135 230.801 278.692 230.943V230.977C278.053 231.094 277.561 231.719 277.567 232.455C277.561 233.401 278.371 234.08 279.544 234.08ZM279.544 233.455C278.746 233.455 278.254 233.045 278.26 232.42C278.254 231.764 278.797 231.295 279.544 231.295C280.28 231.295 280.822 231.764 280.828 232.42C280.822 233.045 280.331 233.455 279.544 233.455ZM279.544 230.693C278.908 230.693 278.459 230.295 278.464 229.693C278.459 229.102 278.891 228.716 279.544 228.716C280.186 228.716 280.618 229.102 280.624 229.693C280.618 230.295 280.169 230.693 279.544 230.693ZM284.542 234.08C285.718 234.094 286.485 233.207 286.485 232.125C286.485 231 285.653 230.193 284.656 230.193C284.056 230.193 283.542 230.486 283.224 230.966H283.178C283.181 229.548 283.732 228.727 284.633 228.727C285.246 228.727 285.616 229.114 285.746 229.636H286.44C286.298 228.733 285.61 228.102 284.633 228.102C283.323 228.102 282.519 229.261 282.519 231.318C282.519 233.469 283.587 234.068 284.542 234.08ZM284.542 233.455C283.812 233.455 283.278 232.832 283.281 232.136C283.283 231.44 283.843 230.818 284.565 230.818C285.278 230.818 285.803 231.403 285.803 232.125C285.803 232.864 285.255 233.455 284.542 233.455ZM287.784 234H288.523L291.114 228.841V228.182H287.386V228.807H290.386V228.852L287.784 234ZM294.525 234H295.229V231.398H297.752V230.773H295.229V228.807H298.013V228.182H294.525V234ZM299.082 234H299.753V231.239C299.753 230.648 300.219 230.216 300.855 230.216C301.034 230.216 301.219 230.25 301.264 230.261V229.58C301.188 229.574 301.011 229.568 300.912 229.568C300.389 229.568 299.935 229.864 299.776 230.295H299.73V229.636H299.082V234ZM303.699 234.091C304.881 234.091 305.676 233.193 305.676 231.841C305.676 230.477 304.881 229.58 303.699 229.58C302.517 229.58 301.722 230.477 301.722 231.841C301.722 233.193 302.517 234.091 303.699 234.091ZM303.699 233.489C302.801 233.489 302.392 232.716 302.392 231.841C302.392 230.966 302.801 230.182 303.699 230.182C304.597 230.182 305.006 230.966 305.006 231.841C305.006 232.716 304.597 233.489 303.699 233.489ZM307.37 231.375C307.37 230.614 307.842 230.182 308.484 230.182C309.106 230.182 309.484 230.588 309.484 231.273V234H310.154V231.227C310.154 230.114 309.56 229.58 308.677 229.58C308.018 229.58 307.609 229.875 307.404 230.318H307.347V229.636H306.7V234H307.37V231.375ZM313.277 229.636H312.345V228.591H311.675V229.636H311.016V230.205H311.675V232.932C311.675 233.693 312.288 234.057 312.857 234.057C313.107 234.057 313.266 234.011 313.357 233.977L313.22 233.375C313.163 233.386 313.072 233.409 312.925 233.409C312.629 233.409 312.345 233.318 312.345 232.75V230.205H313.277V229.636ZM319.808 229.636H320.49C320.459 228.759 319.649 228.102 318.524 228.102C317.411 228.102 316.536 228.75 316.536 229.727C316.536 230.511 317.104 230.977 318.013 231.239L318.729 231.443C319.342 231.614 319.888 231.83 319.888 232.409C319.888 233.045 319.274 233.466 318.467 233.466C317.774 233.466 317.161 233.159 317.104 232.5H316.376C316.445 233.455 317.217 234.102 318.467 234.102C319.808 234.102 320.57 233.364 320.57 232.42C320.57 231.33 319.536 230.977 318.933 230.818L318.342 230.659C317.911 230.545 317.217 230.318 317.217 229.693C317.217 229.136 317.729 228.727 318.501 228.727C319.206 228.727 319.74 229.062 319.808 229.636ZM323.535 229.636H322.603V228.591H321.933V229.636H321.273V230.205H321.933V232.932C321.933 233.693 322.546 234.057 323.114 234.057C323.364 234.057 323.523 234.011 323.614 233.977L323.478 233.375C323.421 233.386 323.33 233.409 323.183 233.409C322.887 233.409 322.603 233.318 322.603 232.75V230.205H323.535V229.636ZM327.941 234H328.668L329.952 229.364H329.998L331.282 234H332.009L333.6 228.182H332.884L331.668 232.92H331.612L330.373 228.182H329.577L328.339 232.92H328.282L327.066 228.182H326.35L327.941 234ZM334.614 233.205H333.886L333.852 233.523C333.77 234.293 333.608 235.06 333.534 235.42H334.045C334.182 235.034 334.472 234.159 334.568 233.511L334.614 233.205ZM338.197 234H341.606V233.375H338.901V228.182H338.197V234ZM342.594 234H346.265V233.375H343.56V233.33L344.867 231.932C345.867 230.861 346.163 230.361 346.163 229.716C346.163 228.818 345.435 228.102 344.413 228.102C343.393 228.102 342.617 228.795 342.617 229.818H343.288C343.288 229.156 343.717 228.716 344.39 228.716C345.021 228.716 345.504 229.102 345.504 229.716C345.504 230.253 345.188 230.651 344.515 231.386L342.594 233.489V234ZM351.518 230H352.245C352.029 228.875 351.086 228.102 349.859 228.102C348.367 228.102 347.313 229.25 347.313 231.091C347.313 232.932 348.359 234.08 349.904 234.08C351.29 234.08 352.279 233.156 352.279 231.716V231.091H350.063V231.716H351.597C351.577 232.761 350.89 233.42 349.904 233.42C348.825 233.42 347.995 232.602 347.995 231.091C347.995 229.58 348.825 228.761 349.859 228.761C350.7 228.761 351.271 229.236 351.518 230ZM357.497 234.08C358.659 234.08 359.469 233.401 359.474 232.455C359.469 231.719 358.977 231.094 358.349 230.977V230.943C358.895 230.801 359.253 230.267 359.259 229.648C359.253 228.761 358.509 228.102 357.497 228.102C356.474 228.102 355.73 228.761 355.736 229.648C355.73 230.267 356.088 230.801 356.645 230.943V230.977C356.006 231.094 355.514 231.719 355.52 232.455C355.514 233.401 356.324 234.08 357.497 234.08ZM357.497 233.455C356.699 233.455 356.207 233.045 356.213 232.42C356.207 231.764 356.75 231.295 357.497 231.295C358.233 231.295 358.776 231.764 358.781 232.42C358.776 233.045 358.284 233.455 357.497 233.455ZM357.497 230.693C356.861 230.693 356.412 230.295 356.418 229.693C356.412 229.102 356.844 228.716 357.497 228.716C358.139 228.716 358.571 229.102 358.577 229.693C358.571 230.295 358.122 230.693 357.497 230.693ZM360.165 228.182L362.268 231.602V234H362.972V231.602L365.075 228.182H364.268L362.654 230.898H362.586L360.972 228.182H360.165ZM367.929 228.182H367.224L365.77 229.148V229.864L367.19 228.92H367.224V234H367.929V228.182Z" fill="#001C36"/>
<path d="M213.795 268H218.866V266.572H215.552V265.077H218.606V263.646H215.552V262.155H218.866V260.727H213.795V268ZM222.509 270.159C224.153 270.159 225.275 269.41 225.275 268.021V262.545H223.546V263.479H223.496C223.287 262.979 222.811 262.474 221.952 262.474C220.812 262.474 219.778 263.352 219.778 265.266C219.778 267.119 220.762 267.925 221.959 267.925C222.761 267.925 223.297 267.553 223.503 267.048H223.564V268.007C223.564 268.703 223.138 268.955 222.555 268.955C221.998 268.955 221.664 268.742 221.572 268.405L219.927 268.497C220.055 269.452 220.954 270.159 222.509 270.159ZM222.562 266.661C221.92 266.661 221.561 266.139 221.561 265.266C221.561 264.396 221.916 263.831 222.562 263.831C223.198 263.831 223.567 264.381 223.567 265.266C223.567 266.143 223.194 266.661 222.562 266.661ZM228.925 270.159C230.569 270.159 231.691 269.41 231.691 268.021V262.545H229.962V263.479H229.912C229.703 262.979 229.227 262.474 228.368 262.474C227.228 262.474 226.194 263.352 226.194 265.266C226.194 267.119 227.178 267.925 228.375 267.925C229.177 267.925 229.713 267.553 229.919 267.048H229.98V268.007C229.98 268.703 229.554 268.955 228.971 268.955C228.414 268.955 228.08 268.742 227.988 268.405L226.343 268.497C226.471 269.452 227.37 270.159 228.925 270.159ZM228.978 266.661C228.336 266.661 227.977 266.139 227.977 265.266C227.977 264.396 228.332 263.831 228.978 263.831C229.614 263.831 229.983 264.381 229.983 265.266C229.983 266.143 229.61 266.661 228.978 266.661ZM237.561 264.211C237.468 263.131 236.584 262.474 235.107 262.474C233.629 262.474 232.688 263.117 232.695 264.211C232.688 265.049 233.225 265.589 234.315 265.791L235.267 265.972C235.718 266.061 235.923 266.203 235.931 266.445C235.923 266.718 235.618 266.899 235.174 266.899C234.681 266.899 234.347 266.686 234.272 266.288L232.557 266.331C232.681 267.411 233.608 268.103 235.167 268.103C236.627 268.103 237.688 267.375 237.695 266.253C237.688 265.457 237.163 264.985 236.076 264.776L235.025 264.577C234.563 264.484 234.414 264.321 234.418 264.112C234.414 263.835 234.737 263.664 235.139 263.664C235.597 263.664 235.916 263.909 235.966 264.254L237.561 264.211Z" fill="#FD574D"/>
<rect x="395" y="251" width="44" height="26" rx="5" fill="#41D6A0"/>
<rect x="323" y="251" width="66" height="26" rx="5" fill="#41D6A0" fill-opacity="0.15"/>
<path d="M406.455 268H408.213V265.077H411.078V268H412.833V260.727H411.078V263.646H408.213V260.727H406.455V268ZM413.935 268H415.672V262.545H413.935V268ZM414.805 261.91C415.299 261.91 415.697 261.537 415.697 261.079C415.697 260.621 415.299 260.251 414.805 260.251C414.315 260.251 413.914 260.621 413.914 261.079C413.914 261.537 414.315 261.91 414.805 261.91ZM419.32 270.159C420.964 270.159 422.086 269.41 422.086 268.021V262.545H420.357V263.479H420.307C420.097 262.979 419.621 262.474 418.762 262.474C417.622 262.474 416.589 263.352 416.589 265.266C416.589 267.119 417.572 267.925 418.769 267.925C419.572 267.925 420.108 267.553 420.314 267.048H420.374V268.007C420.374 268.703 419.948 268.955 419.366 268.955C418.808 268.955 418.474 268.742 418.382 268.405L416.738 268.497C416.866 269.452 417.764 270.159 419.32 270.159ZM419.373 266.661C418.73 266.661 418.371 266.139 418.371 265.266C418.371 264.396 418.727 263.831 419.373 263.831C420.009 263.831 420.378 264.381 420.378 265.266C420.378 266.143 420.005 266.661 419.373 266.661ZM424.93 264.889C424.933 264.268 425.302 263.898 425.853 263.898C426.41 263.898 426.733 264.257 426.73 264.864V268H428.466V264.523C428.47 263.288 427.717 262.474 426.57 262.474C425.753 262.474 425.178 262.876 424.933 263.547H424.873V260.727H423.193V268H424.93V264.889Z" fill="white"/>
<path d="M344.359 263.362C344.181 261.622 342.885 260.628 341.127 260.628C339.189 260.628 337.679 261.96 337.679 264.364C337.679 266.757 339.153 268.099 341.127 268.099C343.123 268.099 344.228 266.743 344.359 265.454L342.583 265.443C342.459 266.143 341.934 266.558 341.163 266.558C340.126 266.558 339.473 265.809 339.473 264.364C339.473 262.975 340.112 262.169 341.174 262.169C341.973 262.169 342.495 262.634 342.583 263.362H344.359ZM347.101 264.889C347.105 264.268 347.474 263.898 348.025 263.898C348.582 263.898 348.905 264.257 348.902 264.864V268H350.638V264.523C350.642 263.288 349.889 262.474 348.742 262.474C347.925 262.474 347.35 262.876 347.105 263.547H347.045V260.727H345.365V268H347.101V264.889ZM354.272 268.103C355.703 268.103 356.644 267.411 356.843 266.338L355.249 266.292C355.114 266.654 354.759 266.849 354.304 266.849C353.636 266.849 353.224 266.406 353.224 265.738V265.692H356.861V265.259C356.861 263.462 355.767 262.474 354.219 262.474C352.571 262.474 351.513 263.604 351.513 265.294C351.513 267.041 352.557 268.103 354.272 268.103ZM353.224 264.683C353.249 264.14 353.679 263.728 354.254 263.728C354.826 263.728 355.238 264.126 355.245 264.683H353.224ZM360.297 268.103C361.729 268.103 362.67 267.411 362.868 266.338L361.274 266.292C361.139 266.654 360.784 266.849 360.329 266.849C359.662 266.849 359.25 266.406 359.25 265.738V265.692H362.886V265.259C362.886 263.462 361.792 262.474 360.244 262.474C358.596 262.474 357.538 263.604 357.538 265.294C357.538 267.041 358.582 268.103 360.297 268.103ZM359.25 264.683C359.275 264.14 359.704 263.728 360.28 263.728C360.851 263.728 361.263 264.126 361.27 264.683H359.25ZM368.535 264.211C368.443 263.131 367.559 262.474 366.081 262.474C364.604 262.474 363.663 263.117 363.67 264.211C363.663 265.049 364.199 265.589 365.289 265.791L366.241 265.972C366.692 266.061 366.898 266.203 366.905 266.445C366.898 266.718 366.593 266.899 366.149 266.899C365.655 266.899 365.321 266.686 365.247 266.288L363.532 266.331C363.656 267.411 364.583 268.103 366.142 268.103C367.601 268.103 368.663 267.375 368.67 266.253C368.663 265.457 368.137 264.985 367.051 264.776L366 264.577C365.538 264.484 365.389 264.321 365.392 264.112C365.389 263.835 365.712 263.664 366.113 263.664C366.571 263.664 366.891 263.909 366.941 264.254L368.535 264.211ZM372.075 268.103C373.506 268.103 374.447 267.411 374.646 266.338L373.051 266.292C372.916 266.654 372.561 266.849 372.107 266.849C371.439 266.849 371.027 266.406 371.027 265.738V265.692H374.664V265.259C374.664 263.462 373.57 262.474 372.021 262.474C370.374 262.474 369.316 263.604 369.316 265.294C369.316 267.041 370.36 268.103 372.075 268.103ZM371.027 264.683C371.052 264.14 371.482 263.728 372.057 263.728C372.629 263.728 373.041 264.126 373.048 264.683H371.027Z" fill="#41D6A0"/>
<defs>
<filter id="filter0_d_71_2" x="0" y="0" width="415" height="258" filterUnits="userSpaceOnUse" color-interpolation-filters="sRGB">
<feFlood flood-opacity="0" result="BackgroundImageFix"/>
<feColorMatrix in="SourceAlpha" type="matrix" values="0 0 0 0 0 0 0 0 0 0 0 0 0 0 0 0 0 0 127 0" result="hardAlpha"/>
<feOffset/>
<feGaussianBlur stdDeviation="5"/>
<feColorMatrix type="matrix" values="0 0 0 0 0 0 0 0 0 0 0 0 0 0 0 0 0 0 0.1 0"/>
<feBlend mode="normal" in2="BackgroundImageFix" result="effect1_dropShadow_71_2"/>
<feBlend mode="normal" in="SourceGraphic" in2="effect1_dropShadow_71_2" result="shape"/>
</filter>
<filter id="filter1_d_71_2" x="159" y="162" width="323" height="160" filterUnits="userSpaceOnUse" color-interpolation-filters="sRGB">
<feFlood flood-opacity="0" result="BackgroundImageFix"/>
<feColorMatrix in="SourceAlpha" type="matrix" values="0 0 0 0 0 0 0 0 0 0 0 0 0 0 0 0 0 0 127 0" result="hardAlpha"/>
<feOffset/>
<feGaussianBlur stdDeviation="12.5"/>
<feColorMatrix type="matrix" values="0 0 0 0 0 0 0 0 0 0.6875 0 0 0 0 0.64625 0 0 0 0.5 0"/>
<feBlend mode="normal" in2="BackgroundImageFix" result="effect1_dropShadow_71_2"/>
<feBlend mode="normal" in="SourceGraphic" in2="effect1_dropShadow_71_2" result="shape"/>
</filter>
</defs>
</svg>
