<svg width="20" height="22" viewBox="0 0 14 16" fill="none" xmlns="http://www.w3.org/2000/svg">
<path d="M14 12.25V3.5C14 1.603 10.7949 0 7 0C3.20513 0 0 1.603 0 3.5V12.25C0 14.147 3.20513 15.75 7 15.75C10.7949 15.75 14 14.147 14 12.25ZM7 1.75C10.2296 1.75 12.1896 3.06862 12.25 3.49475C12.1896 3.93137 10.2296 5.25 7 5.25C3.77038 5.25 1.81037 3.93138 1.75 3.50525C1.81037 3.06863 3.77038 1.75 7 1.75ZM1.75 5.78113C3.04412 6.52225 4.93238 7 7 7C9.06762 7 10.9559 6.52225 12.25 5.78113V7.86975C12.1896 8.30638 10.2296 9.625 7 9.625C3.77038 9.625 1.81037 8.30638 1.75 7.875V5.78113ZM1.75 12.25V10.1561C3.04412 10.8973 4.93238 11.375 7 11.375C9.06762 11.375 10.9559 10.8973 12.25 10.1561V12.2447C12.1896 12.6814 10.2296 14 7 14C3.77038 14 1.81037 12.6814 1.75 12.25Z" fill="white" fill-opacity="0.5"/>
</svg>
