<svg width="24" height="21" viewBox="0 0 24 21" fill="none" xmlns="http://www.w3.org/2000/svg">
<path d="M21.6 0H2.4C1.08 0 0 0.995712 0 2.21269V19.4606C0 20.4453 1.296 20.9431 2.052 20.2461L4.8 17.7016H21.6C22.92 17.7016 24 16.7058 24 15.4889V2.21269C24 0.995712 22.92 0 21.6 0ZM12 9.95712C11.34 9.95712 10.8 9.45927 10.8 8.85078V4.42539C10.8 3.8169 11.34 3.31904 12 3.31904C12.66 3.31904 13.2 3.8169 13.2 4.42539V8.85078C13.2 9.45927 12.66 9.95712 12 9.95712ZM12 14.3825C11.34 14.3825 10.8 13.8847 10.8 13.2762C10.8 12.6677 11.34 12.1698 12 12.1698C12.66 12.1698 13.2 12.6677 13.2 13.2762C13.2 13.8847 12.66 14.3825 12 14.3825Z" fill="white"/>
</svg>
