<svg width="40" height="40" viewBox="0 0 40 40" fill="none" xmlns="http://www.w3.org/2000/svg">
<path d="M16 2.3094C18.4752 0.880338 21.5248 0.880338 24 2.3094L33.3205 7.6906C35.7957 9.11966 37.3205 11.7607 37.3205 14.6188V25.3812C37.3205 28.2393 35.7957 30.8803 33.3205 32.3094L24 37.6906C21.5248 39.1197 18.4752 39.1197 16 37.6906L6.67949 32.3094C4.20428 30.8803 2.67949 28.2393 2.67949 25.3812V14.6188C2.67949 11.7607 4.20428 9.11966 6.67949 7.6906L16 2.3094Z" fill="#32D3CA"/>
<path d="M23.391 17.2415C23.0924 17.1419 22.8581 16.9076 22.7586 16.609L20.4744 9.75638C20.3224 9.30053 19.6776 9.30053 19.5257 9.75638L17.2415 16.609C17.1419 16.9076 16.9076 17.1419 16.609 17.2415L9.75637 19.5257C9.30052 19.6776 9.30052 20.3224 9.75637 20.4744L16.609 22.7586C16.9076 22.8581 17.1419 23.0924 17.2415 23.391L19.5257 30.2437C19.6776 30.6995 20.3224 30.6995 20.4744 30.2437L22.7586 23.391C22.8581 23.0924 23.0924 22.8581 23.391 22.7586L30.2437 20.4744C30.6995 20.3224 30.6995 19.6776 30.2437 19.5257L23.391 17.2415ZM13.7628 20C13.4792 20 13.4147 19.6025 13.6837 19.5129L17.2328 18.3298C17.7049 18.1725 18.2209 18.3862 18.4434 18.8313L18.666 19.2764C18.8322 19.6089 18.5905 20 18.2188 20H13.7628ZM20 26.2372C20 26.5208 19.6025 26.5853 19.5128 26.3163L18.3298 22.7673C18.1725 22.2951 18.3862 21.7792 18.8313 21.5566L19.2764 21.3341C19.6089 21.1678 20 21.4096 20 21.7813V26.2372ZM20 13.7628C20 13.4792 20.3975 13.4147 20.4872 13.6838L21.6702 17.2328C21.8276 17.7049 21.6138 18.2209 21.1687 18.4434L20.7236 18.666C20.3912 18.8322 20 18.5905 20 18.2188V13.7628ZM22.7672 21.6702C22.2951 21.8276 21.7791 21.6138 21.5566 21.1687L21.334 20.7236C21.1678 20.3912 21.4096 20 21.7812 20H26.2372C26.5208 20 26.5853 20.3975 26.3163 20.4872L22.7672 21.6702ZM16.5745 24.3384C16.7 24.8089 16.4683 25.3014 16.0258 25.5047L13.8078 26.5238C13.597 26.6206 13.3794 26.403 13.4763 26.1922L14.48 24.0077C14.69 23.5507 15.2068 23.3207 15.6869 23.4708L15.8768 23.5301C16.2043 23.6324 16.4564 23.8955 16.5448 24.2269L16.5745 24.3384ZM24.3384 23.4255C24.8089 23.3001 25.3014 23.5318 25.5047 23.9743L26.5238 26.1922C26.6206 26.403 26.403 26.6206 26.1922 26.5238L24.0077 25.5201C23.5506 25.3101 23.3207 24.7932 23.4707 24.3131L23.5301 24.1232C23.6324 23.7958 23.8954 23.5437 24.2269 23.4553L24.3384 23.4255ZM15.6978 16.5082C15.2138 16.6695 14.6859 16.4406 14.4729 15.977L13.4763 13.8078C13.3794 13.597 13.597 13.3794 13.8078 13.4763L15.977 14.4729C16.4406 14.6859 16.6695 15.2138 16.5082 15.6978L16.4637 15.8312C16.3641 16.1298 16.1298 16.3642 15.8312 16.4637L15.6978 16.5082ZM23.4255 15.6617C23.3001 15.1911 23.5318 14.6986 23.9743 14.4953L26.1922 13.4763C26.403 13.3794 26.6206 13.597 26.5238 13.8078L25.5201 15.9923C25.3101 16.4494 24.7932 16.6793 24.3131 16.5293L24.1232 16.4699C23.7958 16.3676 23.5436 16.1046 23.4552 15.7731L23.4255 15.6617Z" fill="#001C36"/>
</svg>
