<svg width="50" height="50" viewBox="0 0 50 50" fill="none" xmlns="http://www.w3.org/2000/svg">
<path d="M20.5 2.59808C23.2846 0.99038 26.7154 0.990381 29.5 2.59808L42.1506 9.90192C44.9352 11.5096 46.6506 14.4808 46.6506 17.6962V32.3038C46.6506 35.5192 44.9352 38.4904 42.1506 40.0981L29.5 47.4019C26.7154 49.0096 23.2846 49.0096 20.5 47.4019L7.84936 40.0981C5.06475 38.4904 3.34937 35.5192 3.34937 32.3038V17.6962C3.34937 14.4808 5.06476 11.5096 7.84937 9.90192L20.5 2.59808Z" fill="#32D3CA"/>
<path d="M29.1202 21.5123C28.8216 21.4128 28.5873 21.1785 28.4877 20.8799L25.4743 11.8397C25.3224 11.3839 24.6776 11.3839 24.5257 11.8397L21.5123 20.8799C21.4128 21.1785 21.1784 21.4128 20.8798 21.5123L11.8397 24.5257C11.3838 24.6776 11.3838 25.3224 11.8397 25.4744L20.8798 28.4877C21.1784 28.5873 21.4128 28.8216 21.5123 29.1202L24.5257 38.1603C24.6776 38.6162 25.3224 38.6162 25.4743 38.1603L28.4877 29.1202C28.5873 28.8216 28.8216 28.5873 29.1202 28.4877L38.1603 25.4744C38.6162 25.3224 38.6162 24.6776 38.1603 24.5257L29.1202 21.5123ZM16.8184 25C16.5348 25 16.4702 24.6025 16.7393 24.5129L21.7467 22.8437C22.2188 22.6864 22.7348 22.9001 22.9573 23.3452L23.4229 24.2764C23.5892 24.6089 23.3474 25 22.9757 25H16.8184ZM25 33.1817C25 33.4653 24.6025 33.5298 24.5128 33.2607L22.8437 28.2534C22.6863 27.7813 22.9001 27.2653 23.3452 27.0427L24.2764 26.5771C24.6089 26.4109 25 26.6526 25 27.0243V33.1817ZM25 16.8184C25 16.5348 25.3975 16.4703 25.4872 16.7393L27.1563 21.7467C27.3137 22.2188 27.0999 22.7348 26.6548 22.9573L25.7236 23.4229C25.3912 23.5892 25 23.3474 25 22.9757V16.8184ZM28.2534 27.1563C27.7812 27.3137 27.2653 27.1 27.0427 26.6549L26.5771 25.7236C26.4109 25.3912 26.6526 25 27.0243 25H33.1817C33.4653 25 33.5298 25.3975 33.2607 25.4872L28.2534 27.1563ZM20.7724 30.6266C20.8979 31.0971 20.6662 31.5896 20.2237 31.7929L17.1064 33.2252C16.8956 33.322 16.678 33.1044 16.7749 32.8936L18.1918 29.8098C18.4018 29.3527 18.9186 29.1228 19.3987 29.2728L19.9775 29.4537C20.3049 29.556 20.5571 29.8191 20.6455 30.1505L20.7724 30.6266ZM30.6265 29.2276C31.0971 29.1022 31.5896 29.3339 31.7929 29.7764L33.2251 32.8936C33.322 33.1044 33.1044 33.322 32.8936 33.2252L29.8098 31.8083C29.3527 31.5983 29.1228 31.0814 29.2728 30.6013L29.4537 30.0225C29.556 29.6951 29.819 29.443 30.1505 29.3546L30.6265 29.2276ZM19.4096 20.7061C18.9256 20.8674 18.3977 20.6385 18.1847 20.1749L16.7749 17.1064C16.678 16.8956 16.8956 16.678 17.1064 16.7749L20.1749 18.1847C20.6385 18.3977 20.8674 18.9256 20.7061 19.4096L20.5401 19.9076C20.4405 20.2062 20.2062 20.4406 19.9076 20.5401L19.4096 20.7061ZM29.2276 19.3735C29.1021 18.903 29.3338 18.4105 29.7763 18.2071L32.8936 16.7749C33.1044 16.678 33.322 16.8956 33.2251 17.1064L31.8083 20.1902C31.5983 20.6473 31.0814 20.8772 30.6013 20.7272L30.0225 20.5463C29.6951 20.444 29.4429 20.181 29.3545 19.8495L29.2276 19.3735Z" fill="#001C36"/>
</svg>
