<svg width="60" height="60" viewBox="0 0 60 60" fill="none" xmlns="http://www.w3.org/2000/svg">
<path d="M24.5 3.17543C27.9034 1.21047 32.0966 1.21047 35.5 3.17543L50.4808 11.8246C53.8842 13.7895 55.9808 17.4209 55.9808 21.3509V38.6491C55.9808 42.5791 53.8842 46.2105 50.4808 48.1754L35.5 56.8246C32.0966 58.7895 27.9034 58.7895 24.5 56.8246L9.51924 48.1754C6.11583 46.2105 4.01924 42.5791 4.01924 38.6491V21.3509C4.01924 17.4209 6.11583 13.7895 9.51924 11.8246L24.5 3.17543Z" fill="#32D3CA"/>
<path d="M34.8493 25.7831C34.5507 25.6836 34.3164 25.4493 34.2169 25.1507L30.4743 13.923C30.3224 13.4672 29.6776 13.4672 29.5257 13.923L25.7831 25.1507C25.6836 25.4493 25.4493 25.6836 25.1507 25.7831L13.923 29.5257C13.4672 29.6776 13.4672 30.3224 13.923 30.4743L25.1507 34.2169C25.4493 34.3164 25.6836 34.5507 25.7831 34.8493L29.5257 46.077C29.6776 46.5328 30.3224 46.5328 30.4743 46.077L34.2169 34.8493C34.3164 34.5507 34.5507 34.3164 34.8493 34.2169L46.077 30.4743C46.5328 30.3224 46.5328 29.6776 46.077 29.5257L34.8493 25.7831ZM19.8739 30C19.5903 30 19.5258 29.6025 19.7948 29.5128L26.2605 27.3576C26.7327 27.2002 27.2486 27.414 27.4712 27.8591L28.1799 29.2764C28.3461 29.6088 28.1043 30 27.7326 30H19.8739ZM30 40.1261C30 40.4097 29.6025 40.4742 29.5128 40.2052L27.3576 33.7395C27.2002 33.2673 27.414 32.7514 27.8591 32.5288L29.2764 31.8201C29.6088 31.6539 30 31.8957 30 32.2674V40.1261ZM30 19.8739C30 19.5903 30.3975 19.5258 30.4872 19.7948L32.6424 26.2605C32.7998 26.7327 32.586 27.2486 32.1409 27.4712L30.7236 28.1799C30.3912 28.3461 30 28.1043 30 27.7327V19.8739ZM33.7395 32.6424C33.2673 32.7998 32.7514 32.586 32.5288 32.1409L31.8201 30.7236C31.6539 30.3912 31.8957 30 32.2673 30H40.1261C40.4097 30 40.4742 30.3975 40.2052 30.4872L33.7395 32.6424ZM24.9703 36.9147C25.0958 37.3853 24.8641 37.8778 24.4216 38.0811L20.405 39.9265C20.1942 40.0234 19.9766 39.8058 20.0735 39.595L21.9036 35.6119C22.1136 35.1548 22.6304 34.9249 23.1105 35.0749L24.0782 35.3773C24.4056 35.4796 24.6578 35.7426 24.7462 36.0741L24.9703 36.9147ZM36.9147 35.0297C37.3853 34.9042 37.8778 35.1359 38.0811 35.5784L39.9265 39.595C40.0234 39.8058 39.8058 40.0234 39.595 39.9265L35.6119 38.0964C35.1548 37.8864 34.9249 37.3696 35.0749 36.8895L35.3773 35.9218C35.4796 35.5944 35.7426 35.3422 36.0741 35.2538L36.9147 35.0297ZM23.1214 24.904C22.6374 25.0653 22.1095 24.8364 21.8965 24.3728L20.0735 20.405C19.9766 20.1942 20.1942 19.9766 20.405 20.0735L24.3728 21.8965C24.8364 22.1095 25.0653 22.6374 24.904 23.1214L24.6164 23.984C24.5169 24.2826 24.2826 24.5169 23.984 24.6164L23.1214 24.904ZM35.0297 23.0853C34.9042 22.6147 35.1359 22.1222 35.5784 21.9189L39.595 20.0735C39.8058 19.9766 40.0234 20.1942 39.9265 20.405L38.0964 24.3881C37.8864 24.8452 37.3696 25.0751 36.8895 24.9251L35.9218 24.6227C35.5944 24.5204 35.3422 24.2574 35.2538 23.9259L35.0297 23.0853Z" fill="#001C36"/>
</svg>
