<?xml version="1.0" standalone="no"?>
<!DOCTYPE svg PUBLIC "-//W3C//DTD SVG 20010904//EN"
 "http://www.w3.org/TR/2001/REC-SVG-20010904/DTD/svg10.dtd">
<svg version="1.0" xmlns="http://www.w3.org/2000/svg"
 width="700.000000pt" height="700.000000pt" viewBox="0 0 700.000000 700.000000"
 preserveAspectRatio="xMidYMid meet">
<metadata>
Created by potrace 1.14, written by Peter Selinger 2001-2017
</metadata>
<g transform="translate(0.000000,700.000000) scale(0.100000,-0.100000)"
fill="#000000" stroke="none">
<path d="M3419 6935 c-60 -16 -54 -12 -394 -210 -159 -92 -306 -176 -325 -187
-19 -11 -183 -106 -365 -211 -181 -105 -442 -255 -580 -335 -137 -79 -295
-170 -350 -202 -237 -138 -684 -395 -728 -419 -95 -51 -173 -144 -195 -233 -9
-35 -12 -458 -12 -1641 0 -1758 -4 -1645 63 -1744 40 -58 100 -99 376 -258
177 -101 476 -273 661 -380 30 -18 98 -57 150 -87 108 -62 719 -416 853 -492
48 -28 96 -55 105 -61 33 -19 248 -143 282 -163 19 -10 118 -67 219 -126 191
-110 251 -134 336 -130 75 3 126 25 290 120 83 48 218 126 300 173 83 48 159
92 170 98 11 7 54 32 95 56 41 24 95 55 120 69 155 87 453 259 482 279 15 11
30 19 33 19 3 0 34 18 70 39 36 22 74 42 85 46 11 3 20 11 20 16 0 5 4 9 9 9
5 0 240 133 522 296 283 164 528 305 544 314 164 94 203 129 247 226 l23 49 0
1635 0 1635 -27 58 c-28 59 -103 141 -153 167 -16 8 -105 59 -198 113 -92 53
-172 97 -177 97 -6 0 -10 5 -10 10 0 6 -4 10 -10 10 -5 0 -55 27 -111 60 -55
33 -102 60 -104 60 -2 0 -36 19 -77 43 -40 24 -93 55 -118 69 -25 14 -85 49
-135 78 -49 29 -103 60 -120 70 -16 9 -102 59 -190 110 -88 51 -176 101 -195
112 -19 11 -51 29 -70 40 -84 49 -548 317 -580 335 -19 11 -123 71 -230 133
-107 62 -215 124 -240 138 -25 14 -61 35 -81 48 -82 51 -195 71 -280 49z"/>
</g>
</svg>
